<svg xmlns="http://www.w3.org/2000/svg" width="42.75" height="46.036" viewBox="0 0 42.75 46.036"><defs><style>.a{fill:#2556ad;}</style></defs><g transform="translate(-18.273 0)"><g transform="translate(18.273 0)"><path class="a" d="M332.323,448.884a.674.674,0,0,0-.674.692.7.7,0,0,0,.705.657h6.3a.7.7,0,0,0,.705-.657.674.674,0,0,0-.674-.692Z" transform="translate(-303.472 -408.523)"/><path class="a" d="M60.97,44.177,59.489,36.6a8.11,8.11,0,0,0-2.7-4.548.675.675,0,0,0-.966.072.7.7,0,0,0,.093.957,6.692,6.692,0,0,1,2.248,3.778l1.481,7.578v0a.207.207,0,0,1-.194.244c-.051,0-.112,0-.182,0H42.553a0,0,0,0,1,0,0l3.9-15.761a0,0,0,0,1,0,0,33.427,33.427,0,0,1,6.932,2.451.674.674,0,0,0,.933-.333.694.694,0,0,0-.337-.877,39.08,39.08,0,0,0-8.3-2.834s-.4-.107-.434-.12h0c0-.051,0-2.222,0-2.251h0a14.027,14.027,0,0,0,4.838-6.358l0,0c1.872-.186,3.622-1.315,3.622-3.3v-1A2.284,2.284,0,0,0,51.435,12H50.57a0,0,0,0,1,0,0l-.033-2.209a8.909,8.909,0,0,0-1.047-4.311.675.675,0,1,0-1.187.641,7.578,7.578,0,0,1,.885,3.672s0,.008,0,.012l.034,2.248a0,0,0,0,1,0,0c-4.365.283-10.723-.624-14.383-2.736-1.658-.957-3.644-.106-5.15,1.411a0,0,0,0,1-.005,0V8.583c0-.743.109-2.57,1.121-3.5a2.6,2.6,0,0,1,2.093-.58.674.674,0,0,0,.7-.466,4.006,4.006,0,0,1,3-2.381A11.543,11.543,0,0,1,46.6,4.007.675.675,0,1,0,47.5,3,12.985,12.985,0,0,0,36.236.358,5.526,5.526,0,0,0,32.5,3.137l0,0a3.748,3.748,0,0,0-2.612.951c-1.357,1.242-1.559,3.347-1.559,4.492V12a0,0,0,0,1,0,0h-.854a2.284,2.284,0,0,0-2.27,2.293v1c0,1.98,1.75,3.11,3.622,3.3l0,0a14.081,14.081,0,0,0,5.126,6.563l.1.068s0,0,0,0c0,.053,0,1.923,0,1.976,0,0,0,0,0,0-.033.013-.433.12-.433.12-5.03,1.286-12.632,3.228-13.812,9.272l-1.481,7.579a1.632,1.632,0,0,0,.23,1.351,1.823,1.823,0,0,0,1.47.508H59.271a1.824,1.824,0,0,0,1.47-.508A1.632,1.632,0,0,0,60.97,44.177ZM50.458,17.163a7.425,7.425,0,0,0,.119-1.293V13.352a0,0,0,0,1,0,0h.854a.945.945,0,0,1,.921.944v1c0,1-.857,1.635-1.893,1.871ZM26.55,15.3v-1a.945.945,0,0,1,.921-.944h.854a0,0,0,0,1,0,0v2.519a7.425,7.425,0,0,0,.119,1.293l-.005,0c-1.035-.236-1.893-.871-1.893-1.871ZM44.575,30.874a9.926,9.926,0,0,1-9.866-.045l0,0-.555-2.245.1-.026a1.345,1.345,0,0,0,1.151-1.38V26.033a0,0,0,0,1,0,0,11.219,11.219,0,0,0,1.194.526,7.449,7.449,0,0,0,5.7,0,11.478,11.478,0,0,0,1.584-.735,0,0,0,0,1,0,0v1.351a1.344,1.344,0,0,0,1.149,1.38l.1.026-.568,2.29,0,0Zm-14.6-13.12a6.672,6.672,0,0,1-.293-1.884v-3c1.174-1.8,3.13-3.164,4.481-2.385,3.528,2.036,9.041,2.969,13.391,2.969.582,0,1.143-.017,1.675-.05a0,0,0,0,1,0,0v2.464a6.669,6.669,0,0,1-.294,1.884,12.454,12.454,0,0,1-4.751,6.3,10.7,10.7,0,0,1-2.35,1.24,6.723,6.723,0,0,1-2.38.483,6.462,6.462,0,0,1-2.384-.483,9.938,9.938,0,0,1-2.353-1.244A12.476,12.476,0,0,1,29.971,17.754ZM20.025,44.687c-.073,0-.136,0-.189-.005a.2.2,0,0,1-.187-.243v0l1.481-7.579c.94-4.811,7.075-6.727,11.711-7.938a0,0,0,0,1,0,0l3.9,15.762a0,0,0,0,1,0,0H20.025Zm21.131,0H38.139a0,0,0,0,1,0,0L35.129,32.531a0,0,0,0,1,0,0,10.825,10.825,0,0,0,9.019.036,0,0,0,0,1,0,0l-3,12.117A0,0,0,0,1,41.157,44.687Z" transform="translate(-18.273 0)"/><path class="a" d="M200.2,170.18a.7.7,0,0,0,.657-.705v-.445a.7.7,0,0,0-.657-.705.674.674,0,0,0-.692.674v.507A.674.674,0,0,0,200.2,170.18Z" transform="translate(-183.213 -153.19)"/><path class="a" d="M292.538,170.18a.7.7,0,0,0,.657-.705v-.445a.7.7,0,0,0-.657-.705.674.674,0,0,0-.692.674v.507A.674.674,0,0,0,292.538,170.18Z" transform="translate(-267.248 -153.19)"/><path class="a" d="M228.606,229.108h.058a3.139,3.139,0,0,0,2.252-.991.691.691,0,0,0,.09-.873.675.675,0,0,0-1.042-.083,1.8,1.8,0,0,1-1.331.6,1.651,1.651,0,0,1-1.191-.558.7.7,0,0,0-.836-.173.676.676,0,0,0-.193,1.046A2.989,2.989,0,0,0,228.606,229.108Z" transform="translate(-207.544 -206.548)"/></g></g></svg>