<svg xmlns="http://www.w3.org/2000/svg" width="46" height="46" viewBox="0 0 46 46"><defs><style>.a{fill:#2556ad;}</style></defs><g transform="translate(3.833 15.333)"><path class="a" d="M46.9,160H40.767a.767.767,0,0,0-.767.767V166.9a.767.767,0,0,0,.767.767H46.9a.767.767,0,0,0,.767-.767v-6.133A.767.767,0,0,0,46.9,160Zm-.767,6.133h-4.6v-4.6h4.6Z" transform="translate(-40 -160)"/></g><g transform="translate(13.8 15.333)"><path class="a" d="M150.9,160h-6.133a.767.767,0,0,0-.767.767V166.9a.767.767,0,0,0,.767.767H150.9a.767.767,0,0,0,.767-.767v-6.133A.767.767,0,0,0,150.9,160Zm-.767,6.133h-4.6v-4.6h4.6Z" transform="translate(-144 -160)"/></g><g transform="translate(24.533 15.333)"><path class="a" d="M262.9,160h-6.133a.767.767,0,0,0-.767.767V166.9a.767.767,0,0,0,.767.767H262.9a.767.767,0,0,0,.767-.767v-6.133A.767.767,0,0,0,262.9,160Zm-.767,6.133h-4.6v-4.6h4.6Z" transform="translate(-256 -160)"/></g><g transform="translate(34.5 15.333)"><path class="a" d="M366.9,160h-6.133a.767.767,0,0,0-.767.767V166.9a.767.767,0,0,0,.767.767H366.9a.767.767,0,0,0,.767-.767v-6.133A.767.767,0,0,0,366.9,160Zm-.767,6.133h-4.6v-4.6h4.6Z" transform="translate(-360 -160)"/></g><g transform="translate(3.833 24.533)"><path class="a" d="M46.9,256H40.767a.767.767,0,0,0-.767.767V262.9a.767.767,0,0,0,.767.767H46.9a.767.767,0,0,0,.767-.767v-6.133A.767.767,0,0,0,46.9,256Zm-.767,6.133h-4.6v-4.6h4.6Z" transform="translate(-40 -256)"/></g><g transform="translate(24.533 24.533)"><path class="a" d="M262.9,256h-6.133a.767.767,0,0,0-.767.767V262.9a.767.767,0,0,0,.767.767H262.9a.767.767,0,0,0,.767-.767v-6.133A.767.767,0,0,0,262.9,256Zm-.767,6.133h-4.6v-4.6h4.6Z" transform="translate(-256 -256)"/></g><g transform="translate(34.5 24.533)"><path class="a" d="M366.9,256h-6.133a.767.767,0,0,0-.767.767V262.9a.767.767,0,0,0,.767.767H366.9a.767.767,0,0,0,.767-.767v-6.133A.767.767,0,0,0,366.9,256Zm-.767,6.133h-4.6v-4.6h4.6Z" transform="translate(-360 -256)"/></g><g transform="translate(3.833 33.733)"><path class="a" d="M46.9,352H40.767a.767.767,0,0,0-.767.767V358.9a.767.767,0,0,0,.767.767H46.9a.767.767,0,0,0,.767-.767v-6.133A.767.767,0,0,0,46.9,352Zm-.767,6.133h-4.6v-4.6h4.6Z" transform="translate(-40 -352)"/></g><g transform="translate(13.8 33.733)"><path class="a" d="M150.9,352h-6.133a.767.767,0,0,0-.767.767V358.9a.767.767,0,0,0,.767.767H150.9a.767.767,0,0,0,.767-.767v-6.133A.767.767,0,0,0,150.9,352Zm-.767,6.133h-4.6v-4.6h4.6Z" transform="translate(-144 -352)"/></g><g transform="translate(24.533 33.733)"><path class="a" d="M262.9,352h-6.133a.767.767,0,0,0-.767.767V358.9a.767.767,0,0,0,.767.767H262.9a.767.767,0,0,0,.767-.767v-6.133A.767.767,0,0,0,262.9,352Zm-.767,6.133h-4.6v-4.6h4.6Z" transform="translate(-256 -352)"/></g><g transform="translate(34.5 33.733)"><path class="a" d="M366.9,352h-6.133a.767.767,0,0,0-.767.767V358.9a.767.767,0,0,0,.767.767H366.9a.767.767,0,0,0,.767-.767v-6.133A.767.767,0,0,0,366.9,352Zm-.767,6.133h-4.6v-4.6h4.6Z" transform="translate(-360 -352)"/></g><g transform="translate(13.862 24.523)"><path class="a" d="M151.855,255.994a.769.769,0,0,0-1.05.284l-3.151,5.758-1.618-2.691a.767.767,0,0,0-1.319.767l2.3,3.833a.726.726,0,0,0,1.288,0l3.833-6.9A.769.769,0,0,0,151.855,255.994Z" transform="translate(-144.649 -255.891)"/></g><path class="a" d="M45.233,6.133H39.867V.767A.767.767,0,0,0,39.1,0H34.5a.767.767,0,0,0-.767.767V6.133H26.067V.767A.767.767,0,0,0,25.3,0H20.7a.767.767,0,0,0-.767.767V6.133H12.267V.767A.767.767,0,0,0,11.5,0H6.9a.767.767,0,0,0-.767.767V6.133H.767A.767.767,0,0,0,0,6.9V42.167A3.833,3.833,0,0,0,3.833,46H42.167A3.833,3.833,0,0,0,46,42.167V6.9A.767.767,0,0,0,45.233,6.133Zm-9.967-4.6h3.067V9.2H35.267Zm-13.8,0h3.067V9.2H21.467Zm-13.8,0h3.067V9.2H7.667Zm36.8,40.633a2.3,2.3,0,0,1-2.3,2.3H3.833a2.3,2.3,0,0,1-2.3-2.3V13.8H44.467Zm0-29.9H1.533v-4.6h4.6v2.3a.767.767,0,0,0,.767.767h4.6a.767.767,0,0,0,.767-.767v-2.3h7.667v2.3a.767.767,0,0,0,.767.767h4.6a.767.767,0,0,0,.767-.767v-2.3h7.667v2.3a.767.767,0,0,0,.767.767h4.6a.767.767,0,0,0,.767-.767v-2.3h4.6Z"/></svg>