<svg xmlns="http://www.w3.org/2000/svg" width="52.099" height="49.553" viewBox="0 0 52.099 49.553"><defs><style>.a{fill:#2556ad;}</style></defs><g transform="translate(0 -12.501)"><path class="a" d="M375.61,325.142a.764.764,0,0,0-.764.764v2.989a2.369,2.369,0,1,0,1.809,4.368L379.2,335.8a.764.764,0,1,0,1.08-1.08l-2.541-2.541a2.367,2.367,0,0,0-1.362-3.287v-2.989A.764.764,0,0,0,375.61,325.142Zm.842,6a.842.842,0,1,1-.842-.842A.843.843,0,0,1,376.452,331.137Z" transform="translate(-335.226 -280.798)"/><path class="a" d="M54.342,269.1a1.438,1.438,0,0,0-1.436-1.436H49.553a1.438,1.438,0,0,0-1.436,1.436v3.353a1.438,1.438,0,0,0,1.436,1.436h3.353a1.438,1.438,0,0,0,1.436-1.436Zm-1.528,3.261H49.645v-3.169h3.169v3.169Z" transform="translate(-43.216 -229.175)"/><path class="a" d="M132.818,269.1a1.438,1.438,0,0,0-1.436-1.436h-3.353a1.438,1.438,0,0,0-1.436,1.436v3.353a1.438,1.438,0,0,0,1.436,1.436h3.353a1.438,1.438,0,0,0,1.436-1.436Zm-1.528,3.261h-3.169v-3.169h3.169Z" transform="translate(-113.699 -229.175)"/><path class="a" d="M211.295,269.1a1.438,1.438,0,0,0-1.436-1.436h-3.353a1.438,1.438,0,0,0-1.436,1.436v3.353a1.438,1.438,0,0,0,1.436,1.436h3.353a1.437,1.437,0,0,0,1.436-1.436Zm-1.528,3.261H206.6v-3.169h3.169Z" transform="translate(-184.183 -229.175)"/><path class="a" d="M273.086,186.024v-3.353a1.438,1.438,0,0,0-1.436-1.436H268.3a1.438,1.438,0,0,0-1.436,1.436v3.353a1.438,1.438,0,0,0,1.436,1.436h3.353A1.437,1.437,0,0,0,273.086,186.024Zm-1.528-.092h-3.169v-3.169h3.169Z" transform="translate(-237.681 -151.548)"/><path class="a" d="M49.553,347.757h3.353a1.438,1.438,0,0,0,1.436-1.436v-3.353a1.438,1.438,0,0,0-1.436-1.436H49.553a1.438,1.438,0,0,0-1.436,1.436v3.353A1.438,1.438,0,0,0,49.553,347.757Zm.092-4.7h3.169v3.169H49.645Z" transform="translate(-43.216 -295.519)"/><path class="a" d="M128.029,347.757h3.353a1.438,1.438,0,0,0,1.436-1.436v-3.353a1.438,1.438,0,0,0-1.436-1.436h-3.353a1.438,1.438,0,0,0-1.436,1.436v3.353A1.438,1.438,0,0,0,128.029,347.757Zm.092-4.7h3.169v3.169h-3.169Z" transform="translate(-113.699 -295.519)"/><path class="a" d="M209.859,341.532h-3.353a1.438,1.438,0,0,0-1.436,1.436v3.353a1.438,1.438,0,0,0,1.436,1.436h3.353a1.437,1.437,0,0,0,1.436-1.436v-3.353A1.437,1.437,0,0,0,209.859,341.532Zm-.092,4.7H206.6V343.06h3.169Z" transform="translate(-184.183 -295.519)"/><path class="a" d="M27.2,327.292H5.279a3.756,3.756,0,0,1-3.751-3.751v-6.317a.764.764,0,1,0-1.528,0v6.317a5.285,5.285,0,0,0,5.279,5.279H27.2a.764.764,0,0,0,0-1.528Z" transform="translate(0 -273)"/><path class="a" d="M.764,41.732a.764.764,0,0,0,.764-.764V25.644H35.891a.764.764,0,1,0,0-1.528H1.528V21.582a3.756,3.756,0,0,1,3.751-3.751H10.6V19.46a2.137,2.137,0,1,0,4.275,0V17.831H30.214V19.46a2.137,2.137,0,1,0,4.275,0V17.831h5.319a3.756,3.756,0,0,1,3.751,3.751v2.534H39.146a.764.764,0,1,0,0,1.528h4.412V36.9a.764.764,0,0,0,1.528,0V21.582A5.285,5.285,0,0,0,39.807,16.3H34.488V14.638a2.137,2.137,0,1,0-4.275,0V16.3H14.873V14.638a2.137,2.137,0,1,0-4.275,0V16.3H5.279A5.285,5.285,0,0,0,0,21.582V40.968A.764.764,0,0,0,.764,41.732ZM31.742,14.638a.61.61,0,1,1,1.219,0V19.46a.61.61,0,1,1-1.219,0Zm-19.616,0a.61.61,0,1,1,1.219,0V19.46a.61.61,0,1,1-1.219,0Z" transform="translate(0 0)"/><path class="a" d="M304.5,277.607a.764.764,0,0,0-1.474.4,10.183,10.183,0,0,1,.331,1.93h-1.21a.764.764,0,0,0,0,1.528h1.211a10.144,10.144,0,0,1-2.439,5.875l-.852-.853a.764.764,0,1,0-1.08,1.08l.852.853a10.144,10.144,0,0,1-5.875,2.439v-1.211a.764.764,0,1,0-1.528,0v1.211a10.144,10.144,0,0,1-5.875-2.439l.853-.853a.764.764,0,0,0-1.08-1.08l-.853.853a10.144,10.144,0,0,1-2.439-5.875h1.211a.764.764,0,0,0,0-1.528h-1.211a10.144,10.144,0,0,1,2.439-5.875l.853.853a.764.764,0,1,0,1.08-1.08l-.852-.853a10.144,10.144,0,0,1,5.875-2.439v1.211a.764.764,0,0,0,1.528,0v-1.21a10.126,10.126,0,0,1,5.881,2.432l-.858.858a.764.764,0,0,0,1.08,1.08l.856-.856a10.353,10.353,0,0,1,.876,1.18.764.764,0,1,0,1.289-.821,11.677,11.677,0,1,0,1.412,3.186Z" transform="translate(-252.818 -230.365)"/><path class="a" d="M273.086,186.024v-3.353a1.438,1.438,0,0,0-1.436-1.436H268.3a1.438,1.438,0,0,0-1.436,1.436v3.353a1.438,1.438,0,0,0,1.436,1.436h3.353A1.437,1.437,0,0,0,273.086,186.024Zm-1.528-.092h-3.169v-3.169h3.169Z" transform="translate(-253.681 -151.548)"/><path class="a" d="M273.086,186.024v-3.353a1.438,1.438,0,0,0-1.436-1.436H268.3a1.438,1.438,0,0,0-1.436,1.436v3.353a1.438,1.438,0,0,0,1.436,1.436h3.353A1.437,1.437,0,0,0,273.086,186.024Zm-1.528-.092h-3.169v-3.169h3.169Z" transform="translate(-261.681 -151.548)"/><path class="a" d="M273.086,186.024v-3.353a1.438,1.438,0,0,0-1.436-1.436H268.3a1.438,1.438,0,0,0-1.436,1.436v3.353a1.438,1.438,0,0,0,1.436,1.436h3.353A1.437,1.437,0,0,0,273.086,186.024Zm-1.528-.092h-3.169v-3.169h3.169Z" transform="translate(-245.681 -151.548)"/></g></svg>