<svg xmlns="http://www.w3.org/2000/svg" width="42.042" height="42.039" viewBox="0 0 42.042 42.039"><defs><style>.a{fill:#2556ad;}</style></defs><g transform="translate(-1 -1.018)"><g transform="translate(1 1.018)"><g transform="translate(0 0)"><path class="a" d="M41.94,33.45l-8.51-5.675a2.484,2.484,0,0,0-3.326.54L27.625,31.5a1.059,1.059,0,0,1-1.358.286l-.472-.26c-1.563-.852-3.508-1.913-7.426-5.833s-4.981-5.866-5.833-7.426l-.259-.472a1.061,1.061,0,0,1,.28-1.363l3.185-2.478a2.485,2.485,0,0,0,.541-3.326l-5.675-8.51a2.471,2.471,0,0,0-3.331-.75L3.72,3.509A5.019,5.019,0,0,0,1.431,6.479c-1.281,4.669-.317,12.726,11.552,24.6,9.442,9.441,16.471,11.98,21.3,11.98a12.412,12.412,0,0,0,3.293-.43,5.015,5.015,0,0,0,2.971-2.289l2.14-3.556A2.471,2.471,0,0,0,41.94,33.45Zm-.458,2.613-2.135,3.558a3.621,3.621,0,0,1-2.137,1.656c-4.31,1.183-11.84.2-23.236-11.192S1.6,11.161,2.782,6.85A3.626,3.626,0,0,1,4.44,4.71L8,2.576A1.072,1.072,0,0,1,9.444,2.9l3.083,4.628,2.587,3.881a1.078,1.078,0,0,1-.234,1.443l-3.186,2.478a2.452,2.452,0,0,0-.649,3.147l.253.46c.9,1.642,2.009,3.685,6.073,7.749s6.106,5.177,7.748,6.072l.46.254a2.452,2.452,0,0,0,3.147-.649L31.2,29.177a1.079,1.079,0,0,1,1.443-.234l8.509,5.675A1.071,1.071,0,0,1,41.481,36.063Z" transform="translate(-1 -1.018)"/><path class="a" d="M283.329,70.725a11.924,11.924,0,0,1,11.91,11.91.7.7,0,1,0,1.4,0,13.326,13.326,0,0,0-13.311-13.311.7.7,0,0,0,0,1.4Z" transform="translate(-259.506 -63.716)"/><path class="a" d="M283.329,121.925a7.716,7.716,0,0,1,7.707,7.707.7.7,0,1,0,1.4,0,9.118,9.118,0,0,0-9.108-9.108.7.7,0,0,0,0,1.4Z" transform="translate(-259.506 -110.712)"/><path class="a" d="M283.329,173.125a3.507,3.507,0,0,1,3.5,3.5.7.7,0,1,0,1.4,0,4.91,4.91,0,0,0-4.9-4.9.7.7,0,0,0,0,1.4Z" transform="translate(-259.506 -157.709)"/></g></g></g></svg>