<svg xmlns="http://www.w3.org/2000/svg" width="59.508" height="52.576" viewBox="0 0 59.508 52.576"><defs><style>.a{fill:#2556ad;}</style></defs><g transform="translate(-22.52 -47.51) rotate(-19)"><g transform="translate(0 69.171)"><path class="a" d="M40.176,76.333a2.621,2.621,0,0,0-1,.2l-18.385,7.66H13.974V80.7H8.734v3.494H6.987v.873H6.114a6.114,6.114,0,1,0,0,12.228h.873v.873H9.826l4.367,14.848h6.192L16.018,98.167h4.769l18.385,7.66a2.671,2.671,0,0,0,1,.2,2.62,2.62,0,0,0,2.62-2.62V78.952A2.62,2.62,0,0,0,40.176,76.333ZM6.987,95.547H6.114a4.367,4.367,0,1,1,0-8.734h.873Zm3.494-13.1h1.747v1.747H10.481Zm7.564,28.822H15.5l-3.852-13.1h2.542Zm2.044-14.848H8.734V85.94H20.088Zm20.962,6.987a.873.873,0,0,1-1.205.8l-18.01-7.5V85.651l18.045-7.5a.874.874,0,0,1,1.17.8Z" transform="translate(0 -76.333)"/></g><g transform="translate(45.424 75.239)"><g transform="translate(0 0)"><path class="a" d="M423.005,132.376a.873.873,0,0,0-1.318-.267l-5.24,3.494a.873.873,0,0,0,.48,1.6.821.821,0,0,0,.48-.148l5.24-3.494A.873.873,0,0,0,423.005,132.376Z" transform="translate(-416.061 -131.915)"/></g></g><g transform="translate(45.412 68.293)"><g transform="translate(0 0)"><path class="a" d="M422.693,68.55a.877.877,0,0,0-1.24,0l-5.24,5.24a.873.873,0,0,0-.005,1.235l.005.005a.873.873,0,0,0,1.235.005l.005-.005,5.24-5.24A.877.877,0,0,0,422.693,68.55Z" transform="translate(-415.954 -68.293)"/></g></g><g transform="translate(45.349 87.467)"><g transform="translate(0 0)"><path class="a" d="M422.043,247.6l-5.24-3.494a.873.873,0,1,0-.961,1.45h0l5.24,3.494a.821.821,0,0,0,.48.148.873.873,0,0,0,.48-1.6Z" transform="translate(-415.381 -243.916)"/></g></g><g transform="translate(45.413 92.749)"><g transform="translate(0 0)"><path class="a" d="M422.71,297.8l-.005-.005-5.24-5.24a.877.877,0,0,0-1.24,1.24l5.24,5.24a.873.873,0,0,0,1.235.005l.005-.005A.873.873,0,0,0,422.71,297.8Z" transform="translate(-415.967 -292.294)"/></g></g><g transform="translate(37.556 73.537)"><g transform="translate(0 0)"><rect class="a" width="1.747" height="20.962"/></g></g><g transform="translate(10.481 85.765)"><g transform="translate(0 0)"><rect class="a" width="1.747" height="1.747"/></g></g><g transform="translate(10.481 80.524)"><g transform="translate(0 0)"><rect class="a" width="1.747" height="3.494"/></g></g></g></svg>