<svg xmlns="http://www.w3.org/2000/svg" width="44.043" height="33.765" viewBox="0 0 44.043 33.765"><defs><style>.a{fill:#2556ad;}</style></defs><g transform="translate(-0.029)"><path class="a" d="M39.157,33.765H4.944A4.92,4.92,0,0,1,.03,28.851V4.914A4.92,4.92,0,0,1,4.944,0H39.157a4.92,4.92,0,0,1,4.914,4.914V28.851A4.92,4.92,0,0,1,39.157,33.765ZM4.944,1.468A3.45,3.45,0,0,0,1.5,4.914V28.851A3.45,3.45,0,0,0,4.944,32.3H39.157A3.45,3.45,0,0,0,42.6,28.851V4.914a3.45,3.45,0,0,0-3.446-3.446Z" transform="translate(0 0)"/><path class="a" d="M37.434,18.808a4.4,4.4,0,1,1,4.4-4.4A4.409,4.409,0,0,1,37.434,18.808Zm0-7.34A2.936,2.936,0,1,0,40.37,14.4,2.939,2.939,0,0,0,37.434,11.468Z" transform="translate(-8.777 -2.66)"/><path class="a" d="M46.989,40.818H30.208A.734.734,0,0,1,29.66,39.6L41.078,26.751a.758.758,0,0,1,1.1,0l9.191,10.34a.734.734,0,0,1,.123.782A4.915,4.915,0,0,1,46.989,40.818ZM31.843,39.35H46.989a3.447,3.447,0,0,0,2.946-1.66l-8.308-9.346Z" transform="translate(-7.832 -7.052)"/><path class="a" d="M22.377,37.227H4.943A4.92,4.92,0,0,1,.029,32.313V27.776a.736.736,0,0,1,.186-.488L12.693,13.25a.758.758,0,0,1,1.1,0L28.471,29.765a.734.734,0,0,1,0,.976L22.925,36.98A.731.731,0,0,1,22.377,37.227ZM1.5,28.055v4.257a3.45,3.45,0,0,0,3.446,3.446h17.1l4.894-5.505-13.7-15.411Z" transform="translate(0 -3.462)"/></g></svg>