<svg xmlns="http://www.w3.org/2000/svg" width="49.36" height="48.542" viewBox="0 0 49.36 48.542"><defs><style>.a{fill:#2556ad;}</style></defs><g transform="translate(0 0)"><path class="a" d="M93.306,38.625c2.033,2.866,4.062,5.43,5.407,7.081.2.24.379.463.557.678H95.212a.823.823,0,1,0,0,1.645h13.163a.823.823,0,1,0,0-1.645h-4.059c.178-.215.361-.438.558-.678,1.344-1.645,3.373-4.215,5.407-7.081a72.282,72.282,0,0,0,5.435-8.759c1.68-3.3,2.532-6.038,2.532-8.14a16.442,16.442,0,0,0-4.818-11.65.823.823,0,1,0-1.164,1.162A14.8,14.8,0,0,1,116.6,21.725c0,1.841-.791,4.329-2.353,7.393a70.647,70.647,0,0,1-5.311,8.556c-2.006,2.829-4.011,5.364-5.339,6.993-.442.541-.839,1.02-1.178,1.425a.833.833,0,0,1-1.254,0c-.339-.4-.736-.884-1.178-1.425-1.329-1.628-3.333-4.163-5.339-6.993a70.647,70.647,0,0,1-5.311-8.556c-1.563-3.064-2.353-5.552-2.353-7.393A14.812,14.812,0,0,1,107.56,8.06a.823.823,0,0,0,.642-1.515A16.46,16.46,0,0,0,85.34,21.725c0,2.1.852,4.841,2.532,8.144A72.232,72.232,0,0,0,93.306,38.625Z" transform="translate(-77.112 -5.246)"/><path class="a" d="M178.887,83.73a.823.823,0,0,0,0-1.645,8.227,8.227,0,1,0,5.817,2.41.823.823,0,1,0-1.163,1.163,6.581,6.581,0,1,1-4.654-1.928Z" transform="translate(-154.207 -74.677)"/><path class="a" d="M49.051,374.025l-5.059-9.049a2.557,2.557,0,0,0-2.238-1.292H35.89a.823.823,0,0,0,0,1.645h5.863a.912.912,0,0,1,.8.449l5.058,9.049a.74.74,0,0,1-.007.76.9.9,0,0,1-.8.436H2.551a.9.9,0,0,1-.8-.436.741.741,0,0,1-.007-.76l5.058-9.049a.911.911,0,0,1,.8-.449h5.863a.823.823,0,0,0,0-1.645H7.609a2.558,2.558,0,0,0-2.24,1.292L.31,374.025a2.386,2.386,0,0,0,.026,2.395,2.534,2.534,0,0,0,2.215,1.249h44.26a2.534,2.534,0,0,0,2.215-1.249A2.386,2.386,0,0,0,49.051,374.025Z" transform="translate(0 -329.127)"/><path class="a" d="M356.45,406.351H353.16a.827.827,0,0,0-.457.138l-2.468,1.645a.823.823,0,0,0,.913,1.369L353.406,408h3.044a.823.823,0,0,0,0-1.645Z" transform="translate(-316.139 -367.682)"/><path class="a" d="M366.937,458.374a.823.823,0,0,0,.823.823h6.581a.823.823,0,0,0,0-1.645H367.76A.823.823,0,0,0,366.937,458.374Z" transform="translate(-331.562 -413.945)"/><path class="a" d="M91.918,409.641a.823.823,0,0,0,.457-1.507l-2.468-1.645a.828.828,0,0,0-.457-.138H86.16a.823.823,0,1,0,0,1.645H89.2l2.261,1.507A.821.821,0,0,0,91.918,409.641Z" transform="translate(-77.11 -367.681)"/><path class="a" d="M60.56,457.551a.823.823,0,0,0,0,1.645h6.581a.823.823,0,0,0,0-1.645Z" transform="translate(-53.978 -413.945)"/></g></svg>