<svg xmlns="http://www.w3.org/2000/svg" width="51.417" height="45.369" viewBox="0 0 51.417 45.369"><defs><style>.a{fill:#2556ad;}</style></defs><g transform="translate(0 -30.11)"><g transform="translate(0 30.11)"><path class="a" d="M223.709,191.141h-23.9a.753.753,0,0,0,0,1.506h23.9a.753.753,0,0,0,0-1.506Z" transform="translate(-179.065 -174.97)"/><path class="a" d="M223.709,248.474h-23.9a.753.753,0,0,0,0,1.506h23.9a.753.753,0,0,0,0-1.506Z" transform="translate(-179.065 -226.545)"/><path class="a" d="M223.709,305.807h-23.9a.753.753,0,0,0,0,1.506h23.9a.753.753,0,0,0,0-1.506Z" transform="translate(-179.065 -278.121)"/><path class="a" d="M172.176,125.549H143.491a4.386,4.386,0,0,0-4.381,4.381v18.038a4.386,4.386,0,0,0,4.381,4.381H163.6a.7.7,0,0,1,.548.266l6.493,8.22a1.294,1.294,0,0,0,1.02.5,1.333,1.333,0,0,0,.438-.075,1.3,1.3,0,0,0,.881-1.238v-7.748a4.4,4.4,0,0,0,3.58-4.306V129.93a4.385,4.385,0,0,0-4.381-4.381Zm2.874,22.418a2.884,2.884,0,0,1-2.837,2.873.753.753,0,0,0-.744.753v7.864l-6.143-7.777a2.192,2.192,0,0,0-1.73-.838H143.491a2.878,2.878,0,0,1-2.874-2.874V129.93a2.878,2.878,0,0,1,2.874-2.874h28.685a2.878,2.878,0,0,1,2.874,2.874Z" transform="translate(-125.14 -115.965)"/><path class="a" d="M11.1,52.148a2.008,2.008,0,0,0-1.3.747l-5.174,6.55V52.88a.753.753,0,0,0-.744-.753,2.413,2.413,0,0,1-2.373-2.4v-15.7a2.407,2.407,0,0,1,2.4-2.4H28.882a2.407,2.407,0,0,1,2.4,2.4v2.905a.753.753,0,0,0,1.506,0V34.021a3.915,3.915,0,0,0-3.911-3.911H3.911A3.915,3.915,0,0,0,0,34.021v15.7a3.929,3.929,0,0,0,3.117,3.829v6.665a1.224,1.224,0,0,0,.832,1.17,1.261,1.261,0,0,0,.414.071,1.223,1.223,0,0,0,.964-.473l5.652-7.156a.508.508,0,0,1,.329-.189.753.753,0,1,0-.212-1.491Z" transform="translate(0 -30.11)"/></g></g></svg>