<svg xmlns="http://www.w3.org/2000/svg" width="27" height="25.214" viewBox="0 0 27 25.214"><defs><style>.a{fill:#2556ad;}.b,.d{fill:none;}.b{stroke:#2556ad;}.c{stroke:none;}</style></defs><g transform="translate(-4308 -905.786)"><g transform="translate(4308 905.786)"><path class="a" d="M374.493,325.142a.4.4,0,0,0-.4.4v1.579a1.252,1.252,0,1,0,.956,2.308l1.343,1.343a.4.4,0,0,0,.571-.571l-1.343-1.343a1.251,1.251,0,0,0-.72-1.737v-1.579A.4.4,0,0,0,374.493,325.142Zm.445,3.168a.445.445,0,1,1-.445-.445A.445.445,0,0,1,374.938,328.31Z" transform="translate(-353.159 -307.804)"/><path class="a" d="M14.371,322.184H2.79A1.984,1.984,0,0,1,.807,320.2v-3.338a.4.4,0,1,0-.807,0V320.2a2.793,2.793,0,0,0,2.79,2.79H14.371a.4.4,0,0,0,0-.807Z" transform="translate(0 -300.101)"/><path class="a" d="M.4,27.947a.4.4,0,0,0,.4-.4v-8.1H18.966a.4.4,0,1,0,0-.807H.807V17.3A1.985,1.985,0,0,1,2.79,15.317H5.6v.861a1.129,1.129,0,1,0,2.259,0v-.861h8.106v.861a1.129,1.129,0,1,0,2.259,0v-.861h2.811A1.985,1.985,0,0,1,23.017,17.3v1.339H20.686a.4.4,0,1,0,0,.807h2.332v5.947a.4.4,0,1,0,.807,0V17.3a2.793,2.793,0,0,0-2.79-2.79H18.224v-.88a1.129,1.129,0,1,0-2.259,0v.88H7.859v-.88a1.129,1.129,0,1,0-2.259,0v.88H2.79A2.793,2.793,0,0,0,0,17.3V27.544A.4.4,0,0,0,.4,27.947ZM16.773,13.63a.322.322,0,1,1,.644,0v2.548a.322.322,0,1,1-.644,0Zm-10.365,0a.322.322,0,1,1,.644,0v2.548a.322.322,0,1,1-.644,0Z" transform="translate(0 -12.501)"/><g class="b" transform="translate(17 15.214)"><circle class="c" cx="5" cy="5" r="5"/><circle class="d" cx="5" cy="5" r="4.5"/></g></g></g></svg>