<svg xmlns="http://www.w3.org/2000/svg" width="23" height="15.333" viewBox="0 0 23 15.333"><defs><style>.a{fill:#2556ad;}</style></defs><g transform="translate(0 -85.333)"><g transform="translate(0 85.333)"><path class="a" d="M21.82,85.333H1.18A1.183,1.183,0,0,0,0,86.512V99.487a1.183,1.183,0,0,0,1.18,1.18H21.82A1.183,1.183,0,0,0,23,99.487V86.512A1.183,1.183,0,0,0,21.82,85.333Zm-.443.885-9.2,6.9a1.233,1.233,0,0,1-1.357,0l-9.2-6.9Zm-4.914,7.355,5.013,6.192c.005.006.011.011.017.017H1.507c.005-.006.012-.01.017-.017l5.013-6.192a.442.442,0,0,0-.688-.557L.885,99.148V86.77l9.406,7.055a2.111,2.111,0,0,0,2.418,0l9.406-7.055V99.148l-4.964-6.132a.442.442,0,0,0-.688.557Z" transform="translate(0 -85.333)"/></g></g></svg>