<svg xmlns="http://www.w3.org/2000/svg" width="26.716" height="23.815" viewBox="0 0 26.716 23.815"><defs><style>.a{opacity:0.4;}.b{fill:#161f3d;}</style></defs><g class="a" transform="translate(-6.002 -66.426) rotate(-5)"><g transform="translate(0 68.86)"><path class="b" d="M23.391,76.333a1.5,1.5,0,0,0-.584.119L12.1,80.988H8.136V78.919H5.085v2.069H4.068v.517H3.56a3.622,3.622,0,0,0,0,7.242h.509v.517H5.721l2.543,8.794h3.605L9.326,89.265H12.1l10.7,4.537a1.521,1.521,0,0,0,2.11-1.433V77.884A1.539,1.539,0,0,0,23.391,76.333ZM4.068,87.713H3.56a2.587,2.587,0,0,1,0-5.173h.509ZM6.1,79.954H7.119v1.035H6.1Zm4.4,17.071H9.026L6.784,89.265h1.48ZM11.7,88.23H5.085V82.023H11.7Zm12.2,4.138a.513.513,0,0,1-.511.515.5.5,0,0,1-.191-.039L12.713,88.4V81.852l10.506-4.444a.506.506,0,0,1,.651.31.526.526,0,0,1,.03.165Z" transform="translate(0 -76.333)"/></g></g></svg>