<svg xmlns="http://www.w3.org/2000/svg" width="39.667" height="42.5" viewBox="0 0 39.667 42.5"><defs><style>.a{fill:#2556ad;}</style></defs><g transform="translate(-4 -2)"><path class="a" d="M6.911,24.281c2.023,3.967,3.557,7.561,4.79,10.452,2.6,6.091,4.165,9.767,7.175,9.767,3.192,0,3.542-2.5,3.542-7.792,0-6.551.642-7.083,1.417-7.083s1.417.533,1.417,7.083c0,5.3.349,7.792,3.542,7.792,3.01,0,4.577-3.676,7.175-9.767,1.233-2.891,2.767-6.488,4.79-10.452l.237-.465c1.257-2.442,2.673-5.21,2.673-8.358C43.667,7.912,38.689,2,32.333,2a11.733,11.733,0,0,0-6.8,2.271,3.124,3.124,0,0,1-3.39,0A11.733,11.733,0,0,0,15.333,2C8.978,2,4,7.912,4,15.458c0,3.148,1.42,5.916,2.673,8.358ZM15.333,3.417A10.252,10.252,0,0,1,21.278,5.4h0a12.266,12.266,0,0,0,7.06,2.024,16.374,16.374,0,0,0,5.2-.879l-.448-1.346a13.936,13.936,0,0,1-7.282.555,3.438,3.438,0,0,0,.58-.354,10.252,10.252,0,0,1,5.946-1.978c5.561,0,9.917,5.289,9.917,12.042,0,2.806-1.337,5.412-2.517,7.711l-.239.467c-2.045,4.009-3.589,7.631-4.83,10.541-2.287,5.365-3.8,8.907-5.872,8.907-1.542,0-2.125-.55-2.125-6.375,0-5.994-.394-8.5-2.833-8.5S21,30.714,21,36.708c0,5.825-.583,6.375-2.125,6.375-2.074,0-3.585-3.542-5.872-8.907-1.241-2.91-2.785-6.532-4.83-10.541l-.239-.467c-1.179-2.3-2.517-4.905-2.517-7.711C5.417,8.706,9.772,3.417,15.333,3.417Z"/><path class="a" d="M17.208,7.417V6C14.285,6,8.6,8.21,8,16.575l1.417.1C10.066,7.567,16.919,7.417,17.208,7.417Z" transform="translate(-1.167 -1.167)"/><rect class="a" width="1" height="1" transform="translate(7 17)"/><path class="a" d="M54.013,21H52.6c0,.033-.067,3.411-3.41,8.091l1.153.823C53.971,24.825,54.013,21.154,54.013,21Z" transform="translate(-13.179 -5.542)"/></g></svg>