<svg xmlns="http://www.w3.org/2000/svg" width="53" height="48.582" viewBox="0 0 53 48.582"><defs><style>.a{fill:#2556ad;}</style></defs><g transform="translate(0 -0.008)"><path class="a" d="M24.291,48.59a24.291,24.291,0,1,1,13.1-44.742A1.657,1.657,0,0,1,35.6,6.637,20.975,20.975,0,1,0,45.269,24.3c0-.691-.033-1.376-.1-2.049a1.656,1.656,0,1,1,3.3-.32q.112,1.169.112,2.369A24.319,24.319,0,0,1,24.291,48.59Zm0,0"/><path class="a" d="M160.932,48.95a1.644,1.644,0,0,1-1.17-.486l-9.937-9.937a1.657,1.657,0,1,1,2.343-2.343l8.767,8.767,23.118-23.118a1.657,1.657,0,1,1,2.343,2.343L162.1,48.467a1.659,1.659,0,0,1-1.173.484Zm0,0" transform="translate(-133.881 -19.131)"/></g></svg>