<svg xmlns="http://www.w3.org/2000/svg" width="201.63" height="65.266" viewBox="0 0 201.63 65.266"><defs><style>.a{fill:#3078b3;}.b,.c{fill:#2556ad;}.c,.d,.e{fill-rule:evenodd;}.d{fill:#123278;}.e{fill:#549dd1;}</style></defs><g transform="translate(-0.89 -4.37)"><g transform="translate(44.14 29.276)"><path class="a" d="M215.093,135.973c-.2-3.68-.426-8.04-.381-11.282h-.126c-.821,3.085-1.82,6.422-3.009,9.945l-4.319,12.913h-2.423l-4.012-12.595c-1.165-3.687-2.132-7.1-2.818-10.263H197.9c-.061,3.3-.233,7.562-.467,11.535l-.651,11.493H193.64l1.791-26.9h4.108l4.149,12.806c1.046,3.37,1.883,6.236,2.544,9.119h.105c.653-2.827,1.49-5.67,2.589-9.117L213.2,120.82h4.142l1.629,26.9h-3.254Z" transform="translate(-193.64 -119.597)"/><path class="a" d="M319.727,123.592a2.07,2.07,0,1,1-2.069-2.132A2.019,2.019,0,0,1,319.727,123.592Zm-3.745,24.621v-19.3h3.363v19.3Z" transform="translate(-288.226 -120.094)"/><path class="a" d="M354.709,115.37V138.62c0,1.589.079,3.6.159,4.871h-2.973l-.186-3.063H351.6a6.283,6.283,0,0,1-5.8,3.467c-4.254,0-7.488-3.828-7.488-9.835-.02-6.568,3.642-10.272,7.818-10.272a5.564,5.564,0,0,1,5.134,2.735h.081V115.372h3.357Zm-3.357,16.517a7.752,7.752,0,0,0-.119-1.432,4.647,4.647,0,0,0-4.416-3.954c-3.31,0-5.093,3.3-5.093,7.423,0,3.969,1.683,7.223,4.992,7.223,1.93,0,3.817-1.261,4.481-3.936a5.668,5.668,0,0,0,.155-1.438Z" transform="translate(-305.856 -115.37)"/><path class="a" d="M425.674,187.51v2.511H416.16V187.51Z" transform="translate(-366.23 -171.323)"/><path class="a" d="M458.671,147.709l-6.321-26.9h3.525l2.924,13.42c.718,3.366,1.344,6.608,1.784,9.42h.105c.408-2.892,1.185-6.009,2.015-9.464l3.274-13.375h3.3l3.047,13.342c.707,3.209,1.391,6.346,1.793,9.46h.094c.509-3.227,1.176-6.2,1.912-9.464l3.159-13.337h3.4l-6.913,26.9h-3.442l-3.144-13.723a87.349,87.349,0,0,1-1.656-8.809h-.081a79.448,79.448,0,0,1-1.894,8.838l-3.465,13.692h-3.422Z" transform="translate(-394.3 -119.589)"/><path class="a" d="M588.117,123.592a2.07,2.07,0,1,1-2.069-2.132A2.019,2.019,0,0,1,588.117,123.592Zm-3.745,24.621v-19.3h3.364v19.3Z" transform="translate(-496.394 -120.094)"/><path class="a" d="M612.23,115.37h3.363v28.122H612.23Z" transform="translate(-518.306 -115.37)"/><path class="a" d="M634.177,169.123a8.516,8.516,0,0,0,4.194,1.266c2.318,0,3.482-1.2,3.482-2.856,0-1.618-.877-2.545-3.254-3.606-3.2-1.371-4.768-3.2-4.764-5.482,0-3.119,2.47-5.565,6.276-5.565a8.453,8.453,0,0,1,4.339,1.129l-.85,2.482a6.552,6.552,0,0,0-3.543-1.057c-1.943,0-2.987,1.2-2.987,2.594,0,1.506.942,2.226,3.287,3.3,3,1.3,4.737,3,4.744,5.827,0,3.556-2.654,5.791-6.8,5.791a9.633,9.633,0,0,1-4.943-1.277Z" transform="translate(-534.695 -144.463)"/><path class="a" d="M691.56,115.37h3.363v11.549H695a6.464,6.464,0,0,1,2.257-2.242,6.3,6.3,0,0,1,3.285-.889c2.558,0,6.065,1.69,6.065,7.815v11.888h-3.364V131.979c0-2.895-.983-5.385-3.906-5.385a4.489,4.489,0,0,0-4.212,3.375,5.32,5.32,0,0,0-.2,1.607v11.917h-3.364V115.37Z" transform="translate(-579.836 -115.37)"/><path class="a" d="M772.207,123.592a2.07,2.07,0,1,1-2.069-2.132A2.019,2.019,0,0,1,772.207,123.592Zm-3.745,24.621v-19.3h3.364v19.3Z" transform="translate(-639.178 -120.094)"/><path class="a" d="M795.709,158.993c0-2.085-.072-4.019-.159-5.7h2.975l.139,3.556h.119a5.5,5.5,0,0,1,4.975-3.958,3.884,3.884,0,0,1,.877.081v3.251a5.114,5.114,0,0,0-1.026-.079c-2.316,0-3.978,1.844-4.407,4.351a10.143,10.143,0,0,0-.132,1.674V172.6h-3.363v-13.6Z" transform="translate(-660.492 -144.471)"/><path class="a" d="M833.545,163.457c.056,5.1,2.861,6.841,5.993,6.841a11.09,11.09,0,0,0,4.7-.909l.583,2.419a13.6,13.6,0,0,1-5.787,1.142c-5.538,0-8.755-3.9-8.755-9.727,0-5.973,3.211-10.344,8.311-10.344,5.592,0,7.219,5.114,7.219,8.906a10.739,10.739,0,0,1-.1,1.672Zm9.011-2.446c.04-2.708-1.057-5.652-4.248-5.652-3.117,0-4.487,3.146-4.725,5.652Z" transform="translate(-687.429 -144.463)"/></g><g transform="translate(44.396 60.685)"><path class="b" d="M194.78,257.23a14.484,14.484,0,0,1,2.3-.18,4.807,4.807,0,0,1,3.39,1.05,3.826,3.826,0,0,1,1.185,2.993,4.463,4.463,0,0,1-1.2,3.256,5.207,5.207,0,0,1-3.7,1.207,17.506,17.506,0,0,1-1.966-.092V257.23Zm1.086,7.4a7.6,7.6,0,0,0,1.086.052,3.207,3.207,0,0,0,3.563-3.548c.013-1.977-1.1-3.222-3.384-3.222a6.446,6.446,0,0,0-1.266.11Z" transform="translate(-194.78 -256.669)"/><path class="b" d="M231.358,270.612a1.917,1.917,0,0,0,2.055,2.084,4.025,4.025,0,0,0,1.663-.307l.191.776a4.831,4.831,0,0,1-2,.384,2.8,2.8,0,0,1-2.953-3.029c0-1.82,1.073-3.24,2.825-3.24a2.531,2.531,0,0,1,2.47,2.823,2.617,2.617,0,0,1-.038.512h-4.209Zm3.2-.785a1.55,1.55,0,0,0-1.506-1.768,1.794,1.794,0,0,0-1.676,1.768Z" transform="translate(-222.338 -264.603)"/><path class="b" d="M260.359,269.019c0-.626-.02-1.124-.049-1.622h.965l.061.987h.031a2.22,2.22,0,0,1,1.986-1.124c.826,0,2.116.5,2.116,2.558V273.4h-1.086v-3.46c0-.969-.366-1.784-1.387-1.784a1.576,1.576,0,0,0-1.472,1.12,1.714,1.714,0,0,0-.074.507V273.4h-1.086v-4.38Z" transform="translate(-245.606 -264.588)"/><path class="b" d="M290.5,260.17V261.9h1.568v.828H290.5v3.236c0,.747.215,1.171.826,1.171a2.156,2.156,0,0,0,.633-.079l.049.83a2.8,2.8,0,0,1-.976.15,1.527,1.527,0,0,1-1.178-.462,2.3,2.3,0,0,1-.424-1.566v-3.278H288.5V261.9h.929v-1.447Z" transform="translate(-267.471 -259.089)"/><path class="b" d="M312.139,273.394l-.1-.758h-.031a2.232,2.232,0,0,1-1.838.9,1.712,1.712,0,0,1-1.833-1.723c0-1.454,1.288-2.253,3.608-2.237v-.128a1.236,1.236,0,0,0-1.366-1.384,2.925,2.925,0,0,0-1.564.447l-.247-.727a3.779,3.779,0,0,1,1.981-.527c1.835,0,2.282,1.254,2.282,2.457v2.246a9.37,9.37,0,0,0,.09,1.436h-.985Zm-.171-3.067c-1.182-.025-2.533.186-2.533,1.349a.962.962,0,0,0,1.019,1.046,1.5,1.5,0,0,0,1.463-1.005,1.128,1.128,0,0,0,.052-.343Z" transform="translate(-282.859 -264.58)"/><path class="b" d="M337.66,255.35h1.086v8.814H337.66Z" transform="translate(-305.6 -255.35)"/><path class="b" d="M367.847,264.988a5.353,5.353,0,0,1-2.212.4,3.907,3.907,0,0,1-4.124-4.239,4.153,4.153,0,0,1,4.367-4.389,4.544,4.544,0,0,1,1.986.368l-.267.88a3.981,3.981,0,0,0-1.683-.346,3.108,3.108,0,0,0-3.263,3.451,3.033,3.033,0,0,0,3.206,3.354,4.413,4.413,0,0,0,1.773-.343Z" transform="translate(-324.099 -256.444)"/><path class="b" d="M397.5,273.394l-.1-.758h-.034a2.232,2.232,0,0,1-1.838.9,1.712,1.712,0,0,1-1.833-1.723c0-1.454,1.288-2.253,3.608-2.237v-.128a1.236,1.236,0,0,0-1.367-1.384,2.925,2.925,0,0,0-1.564.447l-.247-.727a3.779,3.779,0,0,1,1.981-.527c1.836,0,2.282,1.254,2.282,2.457v2.246a9.363,9.363,0,0,0,.09,1.436H397.5Zm-.17-3.067c-1.183-.025-2.533.186-2.533,1.349a.962.962,0,0,0,1.019,1.046,1.505,1.505,0,0,0,1.463-1.005,1.131,1.131,0,0,0,.052-.343Z" transform="translate(-349.066 -264.58)"/><path class="b" d="M422.839,269.266c0-.709-.018-1.313-.049-1.869h.956l.043,1.178h.038a1.823,1.823,0,0,1,1.672-1.315,1.165,1.165,0,0,1,.3.031v1.028a1.821,1.821,0,0,0-.373-.031,1.523,1.523,0,0,0-1.461,1.4,2.788,2.788,0,0,0-.045.509V273.4h-1.086v-4.135Z" transform="translate(-371.629 -264.588)"/><path class="b" d="M440.218,270.612a1.917,1.917,0,0,0,2.055,2.084,4.026,4.026,0,0,0,1.663-.307l.191.776a4.831,4.831,0,0,1-2,.384,2.8,2.8,0,0,1-2.953-3.029c0-1.82,1.073-3.24,2.825-3.24a2.531,2.531,0,0,1,2.47,2.823,2.611,2.611,0,0,1-.038.512h-4.209Zm3.2-.785a1.55,1.55,0,0,0-1.506-1.768,1.794,1.794,0,0,0-1.676,1.768Z" transform="translate(-384.333 -264.603)"/></g><g transform="translate(0.89 4.37)"><path class="c" d="M99.911,97.158a47.194,47.194,0,0,1,3.678-4.488c3.462,6.076,4.12,12.063,1.068,17.286a28.522,28.522,0,0,1-3.81,4.512l0,0,0,0a27.1,27.1,0,0,1-3.664,2.668l0,0c-.325.191-.648.368-.96.525l-.013.007.016-.018c6.85-8.5,7.407-15.13,3.7-20.5m.936,17.307h0m0,0h0m-4.638,3.2,0-.013S96.209,117.664,96.209,117.668Z" transform="translate(-74.814 -72.857)"/><path class="d" d="M99.477,112.67c3.711,5.372,3.157,12-3.7,20.5a44.367,44.367,0,0,0-.137-14.957c1.277-1.9,2.544-3.781,3.837-5.542" transform="translate(-74.38 -88.369)"/><path class="e" d="M38.192,155.14a38.132,38.132,0,0,1,2.8,11.006c-3.817,1.818-8.838,2.538-15.922,1.434,5.269-2.076,9.348-7.037,13.122-12.44" transform="translate(-19.644 -121.31)"/><path class="e" d="M19.437,73.917c-3.765-9-10.7-16.472-18.547-23.5a81.259,81.259,0,0,1,17.616,7.391A57.276,57.276,0,0,1,22.15,69.93a44.425,44.425,0,0,1,.137,14.957l-.016.018a.269.269,0,0,0-.036.018,38.058,38.058,0,0,0-2.8-11.006m2.715-3.99c-.9,1.333-1.8,2.672-2.715,3.987C20.355,72.6,21.255,71.261,22.152,69.928Z" transform="translate(-0.89 -40.087)"/><path class="c" d="M83.054,95.469A57.277,57.277,0,0,0,79.41,83.35a24.184,24.184,0,0,1,7.481,6.579c-1.295,1.761-2.562,3.642-3.837,5.54" transform="translate(-61.792 -65.628)"/><path class="e" d="M53.157,28.671a24.161,24.161,0,0,0-7.481-6.579A110.8,110.8,0,0,0,35.92,4.37c9.646,6.092,17.04,13.01,20.915,19.813a47.189,47.189,0,0,0-3.678,4.488" transform="translate(-28.06 -4.37)"/><path class="e" d="M130.188,91.377c3.052-5.224,2.4-11.208-1.068-17.286,5.089-5.376,11.013-7.806,19.663-2.1-10.4,3.245-13.6,12.249-18.595,19.389" transform="translate(-100.347 -54.278)"/><path class="c" d="M86.265,137.36a44.425,44.425,0,0,1,.137,14.957l0,.013-.013.007-.036.018a38.133,38.133,0,0,0-2.8-11.006c.918-1.315,1.818-2.657,2.715-3.99m.135,14.96-.016.018C86.391,152.331,86.4,152.324,86.4,152.32Z" transform="translate(-65.003 -107.519)"/></g></g></svg>