<svg xmlns="http://www.w3.org/2000/svg" width="32" height="31.998" viewBox="0 0 32 31.998"><defs><style>.a{fill:#2556ad;}</style></defs><g transform="translate(-1 -1.018)"><g transform="translate(1 1.018)"><g transform="translate(0 0)"><path class="a" d="M32.161,25.7l-6.477-4.319a1.89,1.89,0,0,0-2.531.411l-1.887,2.426a.806.806,0,0,1-1.034.218l-.359-.2A21.689,21.689,0,0,1,14.22,19.8a21.777,21.777,0,0,1-4.44-5.652l-.2-.359A.807.807,0,0,1,9.8,12.752l2.424-1.886a1.891,1.891,0,0,0,.412-2.531L8.313,1.858a1.881,1.881,0,0,0-2.535-.571L3.07,2.914A3.82,3.82,0,0,0,1.328,5.175C.353,8.728,1.086,14.861,10.121,23.9c7.187,7.186,12.537,9.119,16.214,9.119a9.447,9.447,0,0,0,2.506-.327A3.817,3.817,0,0,0,31.1,30.946l1.629-2.707A1.881,1.881,0,0,0,32.161,25.7Zm-.349,1.989L30.187,30.4a2.756,2.756,0,0,1-1.626,1.261c-3.281.9-9.012.155-17.685-8.519S1.456,8.738,2.357,5.457A2.76,2.76,0,0,1,3.619,3.828L6.327,2.2a.816.816,0,0,1,1.1.247L9.774,5.974l1.969,2.954a.821.821,0,0,1-.178,1.1L9.14,11.912a1.866,1.866,0,0,0-.494,2.4l.193.35a22.622,22.622,0,0,0,4.622,5.9,22.646,22.646,0,0,0,5.9,4.622l.35.193a1.866,1.866,0,0,0,2.4-.494l1.886-2.425a.821.821,0,0,1,1.1-.178l6.476,4.319A.815.815,0,0,1,31.812,27.692Z" transform="translate(-1 -1.018)"/><path class="a" d="M283.161,70.39a9.075,9.075,0,0,1,9.065,9.065.533.533,0,1,0,1.066,0,10.143,10.143,0,0,0-10.132-10.132.533.533,0,0,0,0,1.066Z" transform="translate(-265.029 -65.056)"/><path class="a" d="M283.161,121.59a5.873,5.873,0,0,1,5.866,5.866.533.533,0,0,0,1.066,0,6.94,6.94,0,0,0-6.932-6.932.533.533,0,0,0,0,1.066Z" transform="translate(-265.029 -113.056)"/><path class="a" d="M283.161,172.79a2.67,2.67,0,0,1,2.666,2.666.533.533,0,1,0,1.066,0,3.737,3.737,0,0,0-3.733-3.733.533.533,0,0,0,0,1.066Z" transform="translate(-265.029 -161.056)"/></g></g></g></svg>